P2
10 10
255
0
0
4
0
0
2
4
0
2
0
0
0
1
0
255
0
0
0
0
0
0
0
0
0
255
0
0
0
0
0
0
0
0
0
255
0
0
0
0
0
1
0
1
0
255
0
0
0
0
0
0
0
0
0
255
1
0
0
0
0
0
0
0
0
255
0
0
0
0
0
0
0
0
0
255
0
0
0
0
0
0
0
0
0
255
0
0
0
2
2
0
0
0
0
0
0
0
0
0
0
